<svg xmlns="http://www.w3.org/2000/svg" xmlns:xlink="http://www.w3.org/1999/xlink" width="1024" height="439" viewBox="0 0 4200 1800"><defs><path id="a" d="M-598.74-1706.74h5357.48v5357.48H-598.74z"/></defs><clipPath><use xlink:href="#a" overflow="visible"/></clipPath><defs><path id="b" d="M-598.74-1706.74h5357.48v5357.48H-598.74z"/></defs><clipPath id="c"><use xlink:href="#b" overflow="visible"/></clipPath><path clip-path="url(#c)" fill="#f00" d="M1428.598 772.878c0 367.48-297.902 665.385-665.385 665.385-367.48 0-665.384-297.903-665.384-665.385 0-367.48 297.902-665.384 665.383-665.384 367.482 0 665.385 297.903 665.385 665.384m1330.526.257c0 367.48-297.902 665.385-665.385 665.385-367.482 0-665.386-297.903-665.386-665.385 0-367.48 297.903-665.384 665.385-665.384 367.482 0 665.384 297.904 665.384 665.385m1330.77 0c0 367.48-297.903 665.385-665.385 665.385s-665.387-297.903-665.387-665.385c0-367.48 297.903-665.384 665.386-665.384 367.48 0 665.383 297.904 665.383 665.385"/><path d="M457.08 1720.742h-.46c-1.603 0-2.977-1.374-2.977-2.978v-154.38c0-1.604 1.374-2.978 2.978-2.978s2.75 1.374 2.75 2.978v151.63h82.687c1.833 0 2.978 1.147 2.978 2.75s-1.145 2.978-2.978 2.978H457.08zm128.264-157.357c0-1.832 1.146-2.978 2.978-2.978 1.374 0 2.75 1.146 2.75 2.978v154.38c0 1.832-1.376 2.978-2.75 2.978-1.833 0-2.978-1.146-2.978-2.978v-154.38zm144.53 81.312c-1.376 0-2.98-1.374-2.98-2.748 0-1.834 1.604-3.208 2.98-3.208h52.45c1.605 0 2.75 1.374 2.75 3.207v58.178c0 .23 0 .458-.23.687v.46c-.228.686-.457 1.144-.915 1.602-14.202 10.995-32.755 17.866-52.682 17.866-46.727-.23-84.75-37.106-84.75-82.916 0-45.352 38.023-82.23 84.75-82.23 19.927 0 38.48 6.644 52.68 17.866 1.605 1.146 1.834 2.978.688 4.58-.916 1.147-3.207 1.376-4.352.23-13.285-10.536-30.464-16.95-49.017-16.95-43.52 0-78.793 34.587-78.793 76.503 0 42.604 35.274 76.96 78.793 76.96 17.866 0 34.586-5.954 47.87-15.804v-54.285h-49.244zm196.75-1.374h-91.16v74.44c0 1.605-1.375 2.98-2.75 2.98-1.833 0-2.978-1.375-2.978-2.98v-154.38c0-1.603 1.145-2.977 2.978-2.977 1.375 0 2.75 1.374 2.75 2.978v74.212h91.16v-74.212c0-1.604 1.147-2.978 2.75-2.978s2.978 1.374 2.978 2.978v154.38c0 1.604-1.375 2.978-2.978 2.978-1.604 0-2.75-1.374-2.75-2.978v-74.44zm109.03-77.19h-52.91c-1.605 0-2.98-1.145-2.98-2.748s1.375-2.978 2.98-2.978h111.546c1.832 0 2.978 1.374 2.978 2.978s-1.146 2.75-2.978 2.75h-52.682v151.63c0 1.604-1.604 2.978-2.978 2.978-1.833 0-2.978-1.374-2.978-2.978v-151.63zm106.506-2.748c0-1.832 1.146-2.978 2.978-2.978 1.374 0 2.75 1.146 2.75 2.978v154.38c0 1.832-1.376 2.978-2.75 2.978-1.833 0-2.978-1.146-2.978-2.978v-154.38zm73.982 8.933v145.446c0 1.604-1.145 2.978-2.75 2.978-1.374 0-2.977-1.374-2.977-2.978v-153.922c0-.916.458-1.832 1.145-2.52 1.604-.916 3.207-.687 4.123.458l105.82 147.05v-144.3c0-1.604 1.605-2.978 2.98-2.978 1.603 0 2.748 1.374 2.748 2.978v153.234c0 1.604-1.145 2.978-2.748 2.978-1.145 0-2.29-.688-2.75-1.832-.228 0-.228 0-.228-.23l-105.362-146.362zm235.69 72.38c-1.374 0-2.977-1.375-2.977-2.75 0-1.832 1.603-3.206 2.978-3.206h52.452c1.604 0 2.75 1.374 2.75 3.207v58.178c0 .23 0 .458-.23.687v.46c-.23.686-.458 1.144-.916 1.602-14.202 10.995-32.755 17.866-52.682 17.866-46.727-.23-84.75-37.106-84.75-82.916 0-45.352 38.023-82.23 84.75-82.23 19.927 0 38.48 6.644 52.68 17.866 1.605 1.146 1.834 2.978.688 4.58-.916 1.147-3.207 1.376-4.352.23-13.285-10.536-30.464-16.95-49.017-16.95-43.52 0-78.793 34.587-78.793 76.503 0 42.604 35.274 76.96 78.793 76.96 17.866 0 34.586-5.954 47.87-15.804v-54.285h-49.244zm222.176-81.77c0 1.603-1.374 2.977-2.978 2.977-8.246 0-13.514 1.833-16.72 5.497-3.437 3.665-5.27 10.308-5.27 21.073v15.117h19.24c1.605 0 2.75 1.374 2.75 2.978s-1.145 2.978-2.75 2.978h-19.24v103.988c0 1.604-1.373 2.978-2.977 2.978s-2.978-1.374-2.978-2.978v-103.988h-18.324c-1.602 0-2.977-1.374-2.977-2.978s1.375-2.978 2.978-2.978h18.325v-15.117c0-11.453 2.062-19.47 6.872-24.967 5.04-5.497 12.14-7.33 21.072-7.33 1.604 0 2.978 1.145 2.978 2.75zm82 45.58c29.318 0 53.14 25.195 53.14 56.117 0 30.692-23.82 56.117-53.14 56.117s-52.91-25.425-52.91-56.117c0-30.922 23.59-56.117 52.91-56.117zm0 106.508c25.883 0 47.414-22.676 47.414-50.39 0-27.945-21.53-50.392-47.414-50.392-25.882 0-47.184 22.446-47.184 50.39 0 27.716 21.3 50.392 47.184 50.392zm91.39-49.703c-.228-.458-.228-.688 0-1.375v-52.452c0-1.604 1.375-2.978 2.75-2.978 1.833 0 2.75 1.374 2.75 2.978v38.022c1.832-4.123 4.122-8.704 7.1-13.285 8.704-13.056 23.134-27.715 44.665-27.715 1.833 0 2.978 1.374 2.978 2.978s-1.144 2.978-2.977 2.978c-14.2 0-24.966 6.872-32.525 15.347-8.017 9.163-13.514 20.615-16.492 27.716-1.833 5.04-2.75 7.788-2.75 7.788v52.452c0 1.832-.915 2.978-2.748 2.978-1.375 0-2.75-1.146-2.75-2.978v-52.453zm261.573 11.91h-80.167l-15.346 41c-.23 1.146-1.375 2.062-2.52 2.062-.23 0-.687-.23-1.145-.23-1.375-.686-2.062-2.29-1.375-3.893l57.72-153.92c.46-1.376 1.605-2.063 2.98-1.834 1.145 0 2.29.688 2.977 1.833l57.72 153.922c.687 1.604-.23 3.207-1.603 3.894-.458 0-.687.23-.915.23-1.146 0-2.29-.917-2.98-2.063l-15.344-41zm-77.877-5.955h75.586l-37.794-100.324-37.793 100.324zm218.512 14.887c0-11.223-5.04-19.01-11.45-24.737-6.415-5.726-14.202-8.703-19.24-10.536-3.667-1.146-5.956-1.374-5.956-1.374h-43.52v68.257c0 1.604-1.147 2.978-2.75 2.978s-2.978-1.374-2.978-2.978v-154.38c0-1.604 1.375-2.978 2.977-2.978h46.954c24.51 0 44.666 19.928 44.666 44.665 0 20.386-13.514 37.335-32.066 42.604 2.748 1.145 5.496 2.52 8.244 4.122 10.078 5.727 20.844 16.72 20.844 34.357 0 13.057 1.832 20.157 3.436 23.363 2.063 3.207 3.207 2.75 3.436 2.75h.46c1.374-.23 3.206.686 3.435 2.06.458 1.375-.23 3.207-1.833 3.437-.23.458-.916.458-2.063.458-2.29 0-5.955-1.604-8.244-6.185-2.75-4.58-4.355-12.14-4.355-25.883zm-35.96-42.602h.46c21.07-.23 38.25-16.95 38.25-38.48 0-21.53-17.407-38.938-38.71-38.938h-44.205v77.42h44.205zm172.474-85.436c19.698 0 38.022 6.87 51.995 17.637 1.373 1.146 1.832 2.978.916 4.123-1.374 1.374-3.206 1.603-4.353.458-13.283-10.308-30.004-16.263-48.56-16.263-42.372 0-77.188 33.67-77.188 75.128 0 41.916 34.815 75.587 77.188 75.587 18.324 0 35.045-5.955 48.33-16.263 1.375-.916 3.207-.916 4.352.458 1.146 1.146.688 2.978-.686 4.123-14.432 10.766-32.297 17.637-51.996 17.637-45.81-.23-83.145-36.647-83.145-81.542.002-44.435 37.338-81.083 83.146-81.083zm197.44 85.206h-91.16v74.44c0 1.605-1.376 2.98-2.75 2.98-1.83 0-2.978-1.375-2.978-2.98v-154.38c0-1.603 1.146-2.977 2.98-2.977 1.372 0 2.747 1.374 2.747 2.978v74.212h91.16v-74.212c0-1.604 1.146-2.978 2.75-2.978s2.978 1.374 2.978 2.978v154.38c0 1.604-1.375 2.978-2.98 2.978s-2.747-1.374-2.747-2.978v-74.44zm55.887-79.938c0-1.832 1.145-2.978 2.98-2.978 1.372 0 2.747 1.146 2.747 2.978v154.38c0 1.832-1.375 2.978-2.748 2.978-1.834 0-2.98-1.146-2.98-2.978v-154.38zm111.776 2.75h-52.91c-1.604 0-2.98-1.147-2.98-2.75s1.376-2.978 2.98-2.978h111.547c1.832 0 2.98 1.374 2.98 2.978s-1.147 2.75-2.98 2.75h-52.682v151.63c0 1.604-1.604 2.978-2.977 2.978-1.83 0-2.978-1.374-2.978-2.978v-151.63zm108.11 154.607h-.458c-1.832 0-2.748-1.374-2.748-2.978v-154.38c0-1.374.916-2.748 2.748-2.978h85.436c1.605 0 2.75 1.374 2.75 2.978s-1.146 2.75-2.75 2.75h-82.456v71.462h72.607c1.605 0 2.75 1.375 2.75 2.75 0 1.83-1.146 2.977-2.75 2.977h-72.606v71.692h82.457c1.605 0 2.75 1.146 2.75 2.75s-1.146 2.977-2.75 2.977h-84.976zm208.66-162.625c19.7 0 38.024 6.87 51.997 17.637 1.373 1.146 1.832 2.978.916 4.123-1.375 1.374-3.207 1.603-4.354.458-13.283-10.308-30.004-16.263-48.56-16.263-42.372 0-77.188 33.67-77.188 75.128 0 41.916 34.816 75.587 77.19 75.587 18.323 0 35.044-5.955 48.33-16.263 1.374-.916 3.206-.916 4.35.458 1.147 1.146.69 2.978-.685 4.123-14.433 10.766-32.298 17.637-51.997 17.637-45.81-.23-83.145-36.647-83.145-81.542.002-44.435 37.338-81.083 83.146-81.083zm144.073 8.017h-52.91c-1.604 0-2.98-1.146-2.98-2.75s1.376-2.977 2.98-2.977h111.547c1.832 0 2.98 1.374 2.98 2.978s-1.147 2.75-2.98 2.75h-52.682v151.63c0 1.604-1.603 2.978-2.976 2.978-1.832 0-2.98-1.374-2.98-2.978v-151.63zm105.133-2.75c0-1.603 1.144-2.977 2.978-2.977 1.602 0 2.748 1.374 2.748 2.978v92.994c0 32.524 26.11 58.178 58.408 58.636 32.066-.458 58.178-26.11 58.406-58.637v-92.995c0-1.604 1.375-2.978 2.98-2.978 1.372 0 2.976 1.374 2.976 2.978v92.994c0 35.73-29.088 64.362-64.36 64.362-35.505 0-64.136-28.63-64.136-64.363v-92.995zm263.405 122.77c0-11.222-5.04-19.01-11.453-24.736-6.412-5.726-14.2-8.703-19.24-10.536-3.664-1.146-5.955-1.374-5.955-1.374h-43.52v68.257c0 1.604-1.145 2.978-2.748 2.978s-2.98-1.374-2.98-2.978v-154.38c0-1.604 1.375-2.978 2.98-2.978h46.955c24.508 0 44.664 19.928 44.664 44.665 0 20.386-13.515 37.335-32.067 42.604 2.748 1.145 5.498 2.52 8.246 4.122 10.077 5.727 20.843 16.72 20.843 34.357 0 13.057 1.832 20.157 3.436 23.363 2.06 3.207 3.206 2.75 3.435 2.75h.457c1.375-.23 3.207.686 3.438 2.06.457 1.375-.23 3.207-1.834 3.437-.23.458-.916.458-2.06.458-2.292 0-5.956-1.604-8.247-6.185-2.75-4.58-4.355-12.14-4.355-25.883zm-35.96-42.6h.46c21.07-.23 38.25-16.95 38.25-38.48 0-21.532-17.41-38.94-38.71-38.94h-44.207v77.42h44.207zm99.636 77.188h-.458c-1.832 0-2.748-1.374-2.748-2.978v-154.38c0-1.374.916-2.748 2.748-2.978h85.436c1.604 0 2.75 1.374 2.75 2.978s-1.146 2.75-2.75 2.75H3646.8v71.462h72.61c1.604 0 2.748 1.375 2.748 2.75 0 1.83-1.145 2.977-2.748 2.977h-72.61v71.692h82.458c1.604 0 2.75 1.146 2.75 2.75s-1.146 2.977-2.75 2.977h-84.977z" fill="#231F20"/><defs><path id="d" d="M-598.74-1706.74h5357.48v5357.48H-598.74z"/></defs><clipPath id="e"><use xlink:href="#d" overflow="visible"/></clipPath><path clip-path="url(#e)" fill="#fff" d="M3964.565 1161.89h-223.023l-316.99-838.884-379.264 996.945s12.79 8.995 24.218 16.057l208.743-548.7h291.446l152.254 402.93h221.01s9.365-10.797 21.605-28.346"/><path clip-path="url(#e)" fill="#f00" d="M3558.985 758.962l-134.52-356-135.433 356"/><defs><path id="f" d="M-598.74-1706.74h5357.48v5357.48H-598.74z"/></defs><clipPath id="g"><use xlink:href="#f" overflow="visible"/></clipPath><path clip-path="url(#g)" fill="#fff" d="M2228.99 1424.762v-393.377h478.154s4.972-10.688 11.19-28.346H2228.99V315.643l-470.77 715.74h442.422v398.583s18.896-3.184 28.35-5.205"/><path clip-path="url(#g)" fill="#f00" d="M2200.644 410.325l-389.852 592.714h389.852"/><defs><path id="h" d="M-598.74-1706.74h5357.48v5357.48H-598.74z"/></defs><clipPath id="i"><use xlink:href="#h" overflow="visible"/></clipPath><path clip-path="url(#i)" fill="#fff" d="M1084.38 1355.753v-193.858l-616.47-.125V176.46s-22.693 11.724-28.346 14.91v998.738l616.47.126v180.307s19.408-9.76 28.346-14.787"/></svg>