<svg xmlns="http://www.w3.org/2000/svg" xmlns:xlink="http://www.w3.org/1999/xlink" width="1024" height="439" viewBox="0 0 4200 1800"><defs><path id="a" d="M-598.74-1706.739h5357.48v5357.479h-5357.48z"/></defs><clipPath><use xlink:href="#a" overflow="visible"/></clipPath><defs><path id="b" d="M-598.74-1706.739h5357.48v5357.479h-5357.48z"/></defs><clipPath id="c"><use xlink:href="#b" overflow="visible"/></clipPath><path clip-path="url(#c)" fill="#f00" d="M1428.598 772.878c0 367.481-297.902 665.385-665.385 665.385-367.48 0-665.384-297.903-665.384-665.385 0-367.48 297.903-665.384 665.384-665.384 367.482 0 665.385 297.903 665.385 665.384m1330.526.257c0 367.481-297.902 665.385-665.385 665.385-367.481 0-665.385-297.903-665.385-665.385 0-367.48 297.903-665.384 665.385-665.384 367.483 0 665.385 297.903 665.385 665.384m1330.769 0c0 367.481-297.902 665.385-665.384 665.385s-665.386-297.903-665.386-665.385c0-367.48 297.903-665.384 665.386-665.384 367.481 0 665.384 297.903 665.384 665.384"/><path d="M457.079 1720.742h-.458c-1.604 0-2.978-1.374-2.978-2.978v-154.38c0-1.604 1.374-2.978 2.978-2.978s2.749 1.374 2.749 2.978v151.631h82.687c1.833 0 2.978 1.146 2.978 2.749s-1.145 2.978-2.978 2.978h-84.978zm128.265-157.357c0-1.832 1.146-2.978 2.978-2.978 1.374 0 2.749 1.146 2.749 2.978v154.38c0 1.832-1.375 2.978-2.749 2.978-1.833 0-2.978-1.146-2.978-2.978v-154.38zm144.529 81.312c-1.375 0-2.978-1.374-2.978-2.748 0-1.833 1.603-3.207 2.978-3.207h52.452c1.604 0 2.749 1.374 2.749 3.207v58.179c0 .229 0 .458-.229.687v.459c-.229.687-.458 1.145-.916 1.603-14.201 10.995-32.754 17.866-52.681 17.866-46.727-.229-84.749-37.106-84.749-82.916 0-45.352 38.022-82.229 84.749-82.229 19.927 0 38.48 6.643 52.681 17.865 1.604 1.146 1.833 2.978.687 4.581-.916 1.146-3.207 1.375-4.352.229-13.285-10.536-30.464-16.95-49.017-16.95-43.52 0-78.793 34.587-78.793 76.503 0 42.604 35.274 76.961 78.793 76.961 17.866 0 34.586-5.955 47.871-15.805v-54.285h-49.245zm196.752-1.374h-91.162v74.441c0 1.604-1.374 2.978-2.749 2.978-1.833 0-2.978-1.374-2.978-2.978v-154.38c0-1.604 1.145-2.978 2.978-2.978 1.375 0 2.749 1.374 2.749 2.978v74.212h91.162v-74.212c0-1.604 1.146-2.978 2.749-2.978 1.603 0 2.978 1.374 2.978 2.978v154.38c0 1.604-1.375 2.978-2.978 2.978-1.604 0-2.749-1.374-2.749-2.978v-74.441zm109.029-77.189h-52.911c-1.604 0-2.978-1.146-2.978-2.749s1.374-2.978 2.978-2.978h111.547c1.832 0 2.978 1.374 2.978 2.978s-1.146 2.749-2.978 2.749h-52.682v151.631c0 1.604-1.604 2.978-2.978 2.978-1.833 0-2.978-1.374-2.978-2.978v-151.631zm106.506-2.749c0-1.832 1.146-2.978 2.978-2.978 1.374 0 2.749 1.146 2.749 2.978v154.38c0 1.832-1.375 2.978-2.749 2.978-1.833 0-2.978-1.146-2.978-2.978v-154.38zm73.982 8.933v145.446c0 1.604-1.145 2.978-2.749 2.978-1.375 0-2.978-1.374-2.978-2.978v-153.922c0-.916.458-1.832 1.145-2.52 1.604-.916 3.207-.687 4.123.458l105.821 147.051v-144.301c0-1.604 1.604-2.978 2.978-2.978 1.604 0 2.749 1.374 2.749 2.978v153.234c0 1.604-1.146 2.978-2.749 2.978-1.145 0-2.291-.688-2.749-1.832-.229 0-.229 0-.229-.229l-105.362-146.363zm235.691 72.379c-1.375 0-2.978-1.374-2.978-2.748 0-1.833 1.603-3.207 2.978-3.207h52.452c1.604 0 2.749 1.374 2.749 3.207v58.179c0 .229 0 .458-.229.687v.459c-.229.687-.458 1.145-.916 1.603-14.201 10.995-32.754 17.866-52.681 17.866-46.727-.229-84.749-37.106-84.749-82.916 0-45.352 38.022-82.229 84.749-82.229 19.927 0 38.48 6.643 52.681 17.865 1.604 1.146 1.833 2.978.687 4.581-.916 1.146-3.207 1.375-4.352.229-13.285-10.536-30.464-16.95-49.017-16.95-43.52 0-78.793 34.587-78.793 76.503 0 42.604 35.274 76.961 78.793 76.961 17.866 0 34.586-5.955 47.871-15.805v-54.285h-49.245zm222.175-81.77c0 1.604-1.374 2.978-2.978 2.978-8.246 0-13.514 1.833-16.721 5.497-3.436 3.665-5.268 10.308-5.268 21.073v15.117h19.24c1.604 0 2.749 1.374 2.749 2.978s-1.145 2.978-2.749 2.978h-19.24v103.988c0 1.604-1.374 2.978-2.978 2.978s-2.978-1.374-2.978-2.978v-103.988h-18.324c-1.603 0-2.978-1.374-2.978-2.978s1.375-2.978 2.978-2.978h18.324v-15.117c0-11.453 2.062-19.47 6.872-24.967 5.039-5.497 12.14-7.329 21.072-7.329 1.605 0 2.979 1.144 2.979 2.748zm82 45.581c29.318 0 53.14 25.195 53.14 56.117 0 30.692-23.821 56.117-53.14 56.117s-52.91-25.425-52.91-56.117c0-30.922 23.591-56.117 52.91-56.117zm0 106.508c25.883 0 47.414-22.676 47.414-50.391 0-27.944-21.531-50.391-47.414-50.391-25.882 0-47.184 22.446-47.184 50.391 0 27.715 21.301 50.391 47.184 50.391zm91.391-49.703c-.229-.458-.229-.688 0-1.375v-52.452c0-1.604 1.374-2.978 2.749-2.978 1.833 0 2.749 1.374 2.749 2.978v38.022c1.833-4.123 4.123-8.704 7.101-13.285 8.704-13.056 23.134-27.715 44.665-27.715 1.833 0 2.978 1.374 2.978 2.978s-1.145 2.978-2.978 2.978c-14.201 0-24.966 6.872-32.525 15.347-8.017 9.162-13.514 20.614-16.492 27.715-1.833 5.039-2.749 7.788-2.749 7.788v52.452c0 1.832-.916 2.978-2.749 2.978-1.375 0-2.749-1.146-2.749-2.978v-52.453zm261.572 11.91h-80.168l-15.346 41c-.229 1.146-1.375 2.062-2.52 2.062-.229 0-.687-.229-1.145-.229-1.375-.687-2.062-2.29-1.375-3.894l57.721-153.921c.458-1.375 1.604-2.062 2.978-1.833 1.146 0 2.291.688 2.978 1.833l57.721 153.921c.686 1.604-.23 3.207-1.604 3.894-.459 0-.688.229-.916.229-1.146 0-2.291-.916-2.979-2.062l-15.345-41zm-77.878-5.955h75.586l-37.793-100.324-37.793 100.324zm218.512 14.887c0-11.223-5.039-19.011-11.451-24.737-6.414-5.726-14.201-8.703-19.24-10.536-3.666-1.146-5.955-1.374-5.955-1.374h-43.52v68.257c0 1.604-1.146 2.978-2.75 2.978-1.602 0-2.977-1.374-2.977-2.978v-154.38c0-1.604 1.375-2.978 2.977-2.978h46.955c24.51 0 44.666 19.928 44.666 44.665 0 20.386-13.514 37.335-32.066 42.604 2.748 1.145 5.496 2.52 8.244 4.122 10.078 5.727 20.844 16.721 20.844 34.357 0 13.057 1.832 20.157 3.436 23.363 2.063 3.207 3.207 2.749 3.436 2.749h.459c1.375-.229 3.207.687 3.436 2.062.459 1.374-.229 3.206-1.832 3.436-.229.458-.916.458-2.063.458-2.289 0-5.955-1.604-8.244-6.185-2.751-4.581-4.355-12.14-4.355-25.883zm-35.96-42.602h.459c21.072-.229 38.252-16.95 38.252-38.48 0-21.531-17.408-38.938-38.711-38.938h-44.205v77.419h44.205zm172.474-85.436c19.699 0 38.023 6.871 51.996 17.637 1.373 1.146 1.832 2.978.916 4.123-1.375 1.374-3.207 1.603-4.354.458-13.283-10.308-30.004-16.263-48.559-16.263-42.373 0-77.189 33.67-77.189 75.128 0 41.916 34.816 75.587 77.189 75.587 18.324 0 35.045-5.955 48.33-16.263 1.375-.916 3.207-.916 4.352.458 1.146 1.146.688 2.978-.686 4.123-14.432 10.766-32.297 17.637-51.996 17.637-45.809-.229-83.145-36.647-83.145-81.542.002-44.435 37.338-81.083 83.146-81.083zm197.442 85.206h-91.162v74.441c0 1.604-1.375 2.978-2.748 2.978-1.832 0-2.979-1.374-2.979-2.978v-154.38c0-1.604 1.146-2.978 2.979-2.978 1.373 0 2.748 1.374 2.748 2.978v74.212h91.162v-74.212c0-1.604 1.145-2.978 2.748-2.978s2.979 1.374 2.979 2.978v154.38c0 1.604-1.375 2.978-2.979 2.978s-2.748-1.374-2.748-2.978v-74.441zm55.886-79.938c0-1.832 1.145-2.978 2.979-2.978 1.373 0 2.748 1.146 2.748 2.978v154.38c0 1.832-1.375 2.978-2.748 2.978-1.834 0-2.979-1.146-2.979-2.978v-154.38zm111.776 2.749h-52.91c-1.604 0-2.979-1.146-2.979-2.749s1.375-2.978 2.979-2.978h111.547c1.832 0 2.979 1.374 2.979 2.978s-1.146 2.749-2.979 2.749h-52.682v151.631c0 1.604-1.604 2.978-2.977 2.978-1.832 0-2.979-1.374-2.979-2.978v-151.631zm108.111 154.608h-.459c-1.832 0-2.748-1.374-2.748-2.978v-154.38c0-1.374.916-2.748 2.748-2.978h85.436c1.604 0 2.748 1.374 2.748 2.978s-1.145 2.749-2.748 2.749h-82.457v71.463h72.607c1.604 0 2.748 1.375 2.748 2.749 0 1.832-1.145 2.978-2.748 2.978h-72.607v71.692h82.457c1.604 0 2.748 1.146 2.748 2.749s-1.145 2.978-2.748 2.978h-84.977zm208.66-162.625c19.699 0 38.023 6.871 51.996 17.637 1.373 1.146 1.832 2.978.916 4.123-1.375 1.374-3.207 1.603-4.354.458-13.283-10.308-30.004-16.263-48.559-16.263-42.373 0-77.189 33.67-77.189 75.128 0 41.916 34.816 75.587 77.189 75.587 18.324 0 35.045-5.955 48.33-16.263 1.375-.916 3.207-.916 4.352.458 1.146 1.146.688 2.978-.686 4.123-14.432 10.766-32.297 17.637-51.996 17.637-45.809-.229-83.145-36.647-83.145-81.542.002-44.435 37.338-81.083 83.146-81.083zm144.072 8.017h-52.91c-1.604 0-2.979-1.146-2.979-2.749s1.375-2.978 2.979-2.978h111.547c1.832 0 2.979 1.374 2.979 2.978s-1.146 2.749-2.979 2.749h-52.682v151.631c0 1.604-1.604 2.978-2.977 2.978-1.832 0-2.979-1.374-2.979-2.978v-151.631zm105.133-2.749c0-1.604 1.145-2.978 2.979-2.978 1.602 0 2.748 1.374 2.748 2.978v92.994c0 32.525 26.111 58.179 58.408 58.637 32.066-.458 58.178-26.111 58.406-58.637v-92.994c0-1.604 1.375-2.978 2.979-2.978 1.373 0 2.977 1.374 2.977 2.978v92.994c0 35.732-29.088 64.363-64.361 64.363-35.504 0-64.135-28.631-64.135-64.363v-92.994zm263.406 122.77c0-11.223-5.039-19.011-11.453-24.737-6.412-5.726-14.201-8.703-19.24-10.536-3.664-1.146-5.955-1.374-5.955-1.374h-43.52v68.257c0 1.604-1.145 2.978-2.748 2.978s-2.979-1.374-2.979-2.978v-154.38c0-1.604 1.375-2.978 2.979-2.978h46.956c24.508 0 44.664 19.928 44.664 44.665 0 20.386-13.514 37.335-32.066 42.604 2.748 1.145 5.498 2.52 8.246 4.122 10.078 5.727 20.844 16.721 20.844 34.357 0 13.057 1.832 20.157 3.436 23.363 2.061 3.207 3.207 2.749 3.436 2.749h.457c1.375-.229 3.207.687 3.438 2.062.457 1.374-.23 3.206-1.834 3.436-.229.458-.916.458-2.061.458-2.291 0-5.955-1.604-8.246-6.185-2.75-4.581-4.354-12.14-4.354-25.883zm-35.96-42.602h.459c21.072-.229 38.25-16.95 38.25-38.48 0-21.531-17.408-38.938-38.709-38.938h-44.207v77.419h44.207zm99.636 77.189h-.459c-1.832 0-2.748-1.374-2.748-2.978v-154.38c0-1.374.916-2.748 2.748-2.978h85.436c1.604 0 2.75 1.374 2.75 2.978s-1.146 2.749-2.75 2.749h-82.457v71.463h72.609c1.604 0 2.748 1.375 2.748 2.749 0 1.832-1.145 2.978-2.748 2.978h-72.609v71.692h82.457c1.604 0 2.75 1.146 2.75 2.749s-1.146 2.978-2.75 2.978h-84.977z" fill="#231F20"/><defs><path id="d" d="M-598.74-1706.739h5357.48v5357.479h-5357.48z"/></defs><clipPath id="e"><use xlink:href="#d" overflow="visible"/></clipPath><path clip-path="url(#e)" fill="#fff" d="M3964.565 1161.891h-223.023l-316.989-838.885-379.265 996.945s12.791 8.994 24.218 16.056l208.743-548.699h291.447l152.254 402.929h221.011c0-.001 9.364-10.797 21.604-28.346"/><path clip-path="url(#e)" fill="#f00" d="M3558.985 758.962l-134.52-355.999-135.433 355.999"/><defs><path id="f" d="M-598.74-1706.739h5357.48v5357.479h-5357.48z"/></defs><clipPath id="g"><use xlink:href="#f" overflow="visible"/></clipPath><path clip-path="url(#g)" fill="#fff" d="M2228.991 1424.762v-393.377h478.153s4.972-10.688 11.19-28.346h-489.344v-687.395l-470.771 715.741h442.423v398.582c.001 0 18.896-3.184 28.349-5.205"/><path clip-path="url(#g)" fill="#f00" d="M2200.644 410.325l-389.852 592.714h389.852"/><defs><path id="h" d="M-598.74-1706.739h5357.48v5357.479h-5357.48z"/></defs><clipPath id="i"><use xlink:href="#h" overflow="visible"/></clipPath><path clip-path="url(#i)" fill="#fff" d="M1084.38 1355.753v-193.858l-616.469-.125v-985.31s-22.694 11.724-28.347 14.909v998.739l616.469.126v180.307s19.409-9.762 28.347-14.788"/></svg>